<svg width="102" height="102" viewBox="0 0 102 102" fill="none" xmlns="http://www.w3.org/2000/svg">
<path d="M40.8 73.95L71.4 51L40.8 28.05V73.95ZM51 0C22.848 0 0 22.848 0 51C0 79.152 22.848 102 51 102C79.152 102 102 79.152 102 51C102 22.848 79.152 0 51 0ZM51 91.8C28.509 91.8 10.2 73.491 10.2 51C10.2 28.509 28.509 10.2 51 10.2C73.491 10.2 91.8 28.509 91.8 51C91.8 73.491 73.491 91.8 51 91.8Z" fill="url(#paint0_linear)"/>
<defs>
<linearGradient id="paint0_linear" x1="-1.41158e-07" y1="22.8" x2="96" y2="89.1" gradientUnits="userSpaceOnUse">
<stop stop-color="#B2ED6A"/>
<stop offset="1" stop-color="#60CAD5"/>
</linearGradient>
</defs>
</svg>
